# xmcd
#
# Track frame offsets:
#	150
#	15612
#	34632
#	48737
#	60425
#	74912
#	88762
#	104762
#	120825
#	135787
#	150862
#	166687
#	196312
#
# Disc length: 4440 seconds
#
# Revision: 1
# Processed by: cddbd v1.4PL0 Copyright (c) Steve Scherf et al.
# Submitted via: audiograbber 1.82.02
#
DISCID=a011560d
DTITLE=George Jones - The Gospel Collection CD2
DYEAR=1900
DGENRE=
TTITLE0=Peace In The Valley
TTITLE1=What A Friend We Have In Jesus
TTITLE2=Softly And Tenderly
TTITLE3=Lily Of The Valley
TTITLE4=The Rugged Cross
TTITLE5=Leaning On The Everlasting Arms
TTITLE6=Family Bible
TTITLE7=Mansion Over The Hilltop
TTITLE8=If I Could Hear My Mother Pray Again
TTITLE9=How Beautiful Heaven Must Be
TTITLE10=Jesus, Hold My Hand
TTITLE11=I Know A Man Wh Can
TTITLE12=??
EXTD=
EXTT0=
EXTT1=
EXTT2=
EXTT3=
EXTT4=
EXTT5=
EXTT6=
EXTT7=
EXTT8=
EXTT9=
EXTT10=
EXTT11=
EXTT12=
PLAYORDER=
